<?xml version="1.0" encoding="UTF-8" standalone="no"?>
<!-- Created with Inkscape (http://www.inkscape.org/) -->
<svg id="svg2" xmlns:rdf="http://www.w3.org/1999/02/22-rdf-syntax-ns#" xmlns="http://www.w3.org/2000/svg" height="701.97" width="722.85" version="1.1" xmlns:cc="http://creativecommons.org/ns#" xmlns:dc="http://purl.org/dc/elements/1.1/">
 <metadata id="metadata7">
  <rdf:RDF>
   <cc:Work rdf:about="">
    <dc:format>image/svg+xml</dc:format>
    <dc:type rdf:resource="http://purl.org/dc/dcmitype/StillImage"/>
    <dc:title/>
   </cc:Work>
  </rdf:RDF>
 </metadata>
 <g id="layer1" transform="translate(-6.3261 -174.75)">
  <g id="g3052">
   <path id="path3055" d="m365.31 184.81a46.725 46.342 0 0 0 -17.906 4.5312l-244.34 116.75a46.725 46.342 0 0 0 -25.281 31.438l-60.279 262.25a46.725 46.342 0 0 0 6.344 35.53 46.725 46.342 0 0 0 2.656 3.69l169.12 210.28a46.725 46.342 0 0 0 36.531 17.438l271.23-0.06a46.725 46.342 0 0 0 36.53 -17.41l169.06-210.31a46.725 46.342 0 0 0 9.03 -39.22l-60.375-262.25a46.725 46.342 0 0 0 -25.281 -31.438l-244.38-116.69a46.725 46.342 0 0 0 -22.65 -4.53z" stroke-width="0" fill="#326ce5"/>
   <path id="path3059" style="block-progression:tb;text-indent:0;color:#000000;text-transform:none" d="m367.73 274.06c-8.077 0.00082-14.626 7.2759-14.625 16.25 0.00001 0.13773 0.0282 0.26934 0.0312 0.40625-0.0119 1.2194-0.0708 2.6884-0.0312 3.75 0.19262 5.176 1.3209 9.1375 2 13.906 1.2303 10.207 2.2612 18.667 1.625 26.531-0.61869 2.9654-2.8029 5.6774-4.75 7.5625l-0.34375 6.1875c-8.7768 0.72717-17.612 2.0587-26.438 4.0625-37.975 8.6222-70.67 28.183-95.562 54.594-1.6152-1.1019-4.441-3.1291-5.2813-3.75-2.6112 0.35262-5.2502 1.1583-8.6875-0.84375-6.5449-4.4056-12.506-10.487-19.719-17.812-3.305-3.5042-5.6983-6.841-9.625-10.219-0.89172-0.76707-2.2526-1.8046-3.25-2.5938-3.0699-2.4476-6.6907-3.724-10.188-3.8438-4.4959-0.15394-8.8239 1.6038-11.656 5.1562-5.0352 6.3154-3.4231 15.968 3.5938 21.562 0.0712 0.0567 0.14702 0.10078 0.21875 0.15625 0.96422 0.78162 2.145 1.7831 3.0312 2.4375 4.1669 3.0766 7.9732 4.6514 12.125 7.0938 8.747 5.4018 15.998 9.8809 21.75 15.281 2.246 2.3942 2.6386 6.6129 2.9375 8.4375l4.6875 4.1875c-25.093 37.764-36.707 84.409-29.844 131.94l-6.125 1.7812c-1.6143 2.0846-3.8954 5.3647-6.2813 6.3438-7.5251 2.3702-15.994 3.2406-26.219 4.3125-4.8003 0.39915-8.9422 0.16095-14.031 1.125-1.1201 0.21218-2.6807 0.61877-3.9062 0.90625-0.0426 0.009-0.0824 0.0216-0.125 0.0312-0.0668 0.0155-0.15456 0.0479-0.21875 0.0625-8.6201 2.0828-14.158 10.006-12.375 17.812 1.7832 7.8083 10.203 12.557 18.875 10.688 0.0626-0.0143 0.1535-0.0167 0.21875-0.0312 0.0979-0.0224 0.18409-0.0699 0.28125-0.0937 1.2088-0.26536 2.7238-0.5606 3.7812-0.84375 5.0033-1.3396 8.6269-3.308 13.125-5.0312 9.6769-3.4708 17.692-6.3702 25.5-7.5 3.2612-0.25542 6.6971 2.0122 8.4062 2.9688l6.375-1.0938c14.67 45.483 45.414 82.245 84.344 105.31l-2.6562 6.375c0.95742 2.4754 2.0134 5.8247 1.3002 8.2693-2.8387 7.3612-7.701 15.131-13.238 23.793-2.6808 4.0019-5.4245 7.1076-7.8438 11.688-0.5789 1.0959-1.3162 2.7793-1.875 3.9375-3.7588 8.0424-1.0016 17.305 6.2188 20.781 7.2658 3.4979 16.284-0.19134 20.188-8.25 0.006-0.0114 0.0257-0.0198 0.0312-0.0312 0.004-0.009-0.004-0.0225 0-0.0312 0.55593-1.1426 1.3435-2.6444 1.8125-3.7188 2.0721-4.747 2.7616-8.8151 4.2188-13.406 3.8696-9.7201 5.9957-19.919 11.323-26.274 1.4587-1.7402 3.8368-2.4095 6.3024-3.0696l3.3125-6c33.938 13.027 71.927 16.522 109.88 7.9062 8.657-1.9656 17.014-4.5094 25.094-7.5625 0.93098 1.6513 2.6611 4.8257 3.125 5.625 2.5056 0.81518 5.2404 1.2361 7.4688 4.5312 3.9854 6.809 6.7109 14.864 10.031 24.594 1.4574 4.5911 2.1776 8.6593 4.25 13.406 0.47234 1.082 1.256 2.6049 1.8125 3.75 3.8948 8.0848 12.942 11.787 20.219 8.2812 7.2195-3.4779 9.9797-12.74 6.2188-20.781-0.55889-1.1581-1.3273-2.8416-1.9062-3.9375-2.4195-4.5798-5.1627-7.6545-7.8438-11.656-5.5372-8.6619-10.13-15.858-12.969-23.219-1.1871-3.7966 0.20028-6.1577 1.125-8.625-0.55378-0.63477-1.7388-4.2201-2.4375-5.9062 40.457-23.888 70.299-62.021 84.312-106.06 1.8924 0.29742 5.1815 0.87936 6.25 1.0938 2.1995-1.4507 4.2219-3.3435 8.1875-3.0312 7.8083 1.1294 15.823 4.0297 25.5 7.5 4.4982 1.7231 8.1216 3.7231 13.125 5.0625 1.0575 0.28309 2.5724 0.5472 3.7812 0.8125 0.0972 0.0238 0.1833 0.0714 0.28125 0.0937 0.0653 0.0146 0.15615 0.0169 0.21875 0.0312 8.6724 1.867 17.094-2.8787 18.875-10.688 1.7807-7.807-3.7543-15.732-12.375-17.812-1.2539-0.28513-3.0322-0.76938-4.25-1-5.0891-0.96378-9.2309-0.7261-14.031-1.125-10.225-1.0714-18.694-1.9427-26.219-4.3125-3.0683-1.1903-5.251-4.8412-6.3126-6.3438l-5.9062-1.7188c3.0623-22.154 2.2366-45.211-3.0625-68.281-5.3484-23.285-14.8-44.581-27.406-63.344 1.515-1.3773 4.3762-3.9109 5.1875-4.6562 0.23716-2.6242 0.0334-5.3755 2.75-8.2812 5.7513-5.4007 13.003-9.879 21.75-15.281 4.1517-2.4425 7.9895-4.017 12.156-7.0938 0.94225-0.69576 2.2289-1.7976 3.2188-2.5938 7.0154-5.5963 8.6306-15.248 3.5938-21.562-5.0368-6.3141-14.797-6.9088-21.812-1.3125-0.99856 0.79085-2.3535 1.8225-3.25 2.5938-3.9265 3.378-6.3514 6.7144-9.6562 10.219-7.2125 7.326-13.174 13.438-19.719 17.844-2.836 1.6511-6.99 1.0798-8.875 0.96875l-5.5625 3.9688c-31.719-33.261-74.905-54.525-121.41-58.656-0.13006-1.9487-0.30045-5.4712-0.34375-6.5312-1.9037-1.8216-4.2034-3.3769-4.7812-7.3125-0.63617-7.8639 0.42597-16.325 1.6562-26.531 0.6791-4.7688 1.8074-8.7302 2-13.906 0.0438-1.1766-0.0265-2.884-0.0312-4.1562-0.00096-8.9741-6.548-16.251-14.625-16.25zm-18.312 113.44-4.3438 76.719-0.3125 0.15625c-0.29134 6.8634-5.94 12.344-12.875 12.344-2.8408 0-5.4629-0.91229-7.5938-2.4688l-0.125 0.0625-62.906-44.594c19.334-19.011 44.063-33.06 72.562-39.531 5.206-1.182 10.41-2.0591 15.594-2.6875zm36.656 0c33.273 4.0923 64.045 19.159 87.625 42.25l-62.5 44.312-0.21875-0.0937c-5.5474 4.0517-13.363 3.0464-17.688-2.375-1.7713-2.221-2.7007-4.8324-2.8125-7.4688l-0.0625-0.0312zm-147.62 70.875 57.438 51.375-0.0625 0.3125c5.1844 4.507 5.9489 12.328 1.625 17.75-1.7712 2.221-4.1421 3.7107-6.6875 4.4062l-0.0625 0.25-73.625 21.25c-3.7473-34.265 4.3286-67.574 21.375-95.344zm258.16 0.0312c8.5341 13.833 14.997 29.282 18.844 46.031 3.8011 16.548 4.755 33.067 3.1875 49.031l-74-21.312-0.0625-0.3125c-6.6265-1.811-10.699-8.5516-9.1562-15.312 0.63203-2.7696 2.1022-5.1126 4.0938-6.8438l-0.0312-0.15625 57.125-51.125zm-140.66 55.312h23.531l14.625 18.281-5.25 22.812-21.125 10.156-21.188-10.188-5.25-22.812zm75.438 62.562c0.99997-0.0505 1.9956 0.0396 2.9688 0.21875l0.125-0.15625 76.156 12.875c-11.146 31.313-32.473 58.44-60.969 76.594l-29.562-71.406 0.0937-0.125c-2.7156-6.31 0.002-13.71 6.25-16.719 1.5996-0.77041 3.2709-1.197 4.9375-1.2812zm-127.91 0.3125c5.8117 0.0815 11.025 4.1152 12.375 10.031 0.63219 2.7696 0.3245 5.5138-0.71875 7.9375l0.21875 0.28125-29.25 70.688c-27.347-17.549-49.129-43.824-60.781-76.062l75.5-12.812 0.125 0.15625c0.84451-0.15541 1.701-0.2304 2.5312-0.21875zm63.781 30.969c2.0244-0.0744 4.0786 0.34098 6.0312 1.2812 2.5595 1.2325 4.5367 3.1732 5.7812 5.5h0.28125l37.219 67.25c-4.8303 1.6192-9.7961 3.0031-14.875 4.1562-28.465 6.4629-56.839 4.5047-82.531-4.25l37.125-67.125h0.0625c2.2277-4.1644 6.4525-6.6489 10.906-6.8125z" stroke="#fff" stroke-width=".25" fill="#fff"/>
  </g>
 </g>
</svg>
